<?xml version="1.0" standalone="no"?>
<!DOCTYPE svg PUBLIC "-//W3C//DTD SVG 20010904//EN"
 "http://www.w3.org/TR/2001/REC-SVG-20010904/DTD/svg10.dtd">
<svg version="1.0" xmlns="http://www.w3.org/2000/svg"
 width="420.000000pt" height="420.000000pt" viewBox="0 0 420.000000 420.000000"
 preserveAspectRatio="xMidYMid meet">
<metadata>
Created by potrace 1.11, written by Peter Selinger 2001-2013
</metadata>
<g transform="translate(0.000000,420.000000) scale(0.100000,-0.100000)"
fill="#000000" stroke="none">
<path d="M1919 4176 c-2 -2 -31 -7 -64 -10 -255 -26 -545 -120 -790 -258 -520
-292 -896 -816 -1005 -1398 -11 -58 -22 -118 -26 -135 -10 -50 -12 -416 -3
-480 5 -33 11 -80 15 -105 7 -57 50 -235 74 -309 226 -701 823 -1236 1547
-1386 161 -34 231 -40 428 -40 207 0 263 6 465 50 308 66 677 257 909 470 104
96 146 141 267 286 73 88 213 334 273 479 58 138 119 379 138 535 12 106 9
429 -6 525 -46 300 -141 559 -296 809 -29 47 -67 104 -84 126 -17 22 -34 45
-38 50 -18 24 -140 161 -164 185 -77 73 -129 119 -174 155 -27 22 -52 42 -55
45 -24 26 -221 143 -325 195 -293 144 -545 204 -886 210 -108 2 -198 3 -200 1z"/>
</g>
</svg>
